<svg width="103" height="98" xmlns="http://www.w3.org/2000/svg" xmlns:undefined="http://www.inkscape.org/namespaces/inkscape" xmlns:xlink="http://www.w3.org/1999/xlink">
 <defs>
  <linearGradient id="imagebot_26">
   <stop stop-color="#000000" stop-opacity="0" offset="0" id="imagebot_33"/>
   <stop stop-color="#000000" stop-opacity="0.57196" offset="1" id="imagebot_32"/>
  </linearGradient>
  <filter x="-0.34802" y="-0.34085" width="1.696" height="1.6817" id="imagebot_7">
   <feGaussianBlur  stdDeviation="5.46506" id="imagebot_31"/>
  </filter>
  <filter x="-0.07002" y="-0.3401" width="1.14" height="1.6802" id="imagebot_25">
   <feGaussianBlur  stdDeviation="3.96783" id="imagebot_29"/>
  </filter>
  <radialGradient r="68" gradientTransform="matrix(1.4028 .0000016439 -1.4521e-7 .20588 -89.845 403.11)" cx="210.89" cy="506.35" gradientUnits="userSpaceOnUse" id="imagebot_24">
   <stop stop-color="#000000" offset="0" id="imagebot_28"/>
   <stop stop-color="#000000" stop-opacity="0" offset="1" id="imagebot_27"/>
  </radialGradient>
  <radialGradient r="15.5" gradientTransform="matrix(0.3871 1.5161 -1.4234 0.36342 734.51 -79.107)" cx="233.5" cy="409.86" gradientUnits="userSpaceOnUse" xlink:href="#imagebot_26" id="imagebot_11"/>
  <radialGradient r="65" gradientTransform="matrix(.51027 1.0072 -.96511 .48897 650.89 -406.14)" cx="216.99" cy="497.96" gradientUnits="userSpaceOnUse" xlink:href="#imagebot_26" id="imagebot_18"/>
  <linearGradient id="imagebot_37" y2="1">
   <stop offset="0" stop-color="#fbe9ba"/>
   <stop offset="0.5" stop-color="#fbcd4d"/>
   <stop offset="1" stop-color="#fbdf93"/>
  </linearGradient>
  <linearGradient id="imagebot_115">
   <stop stop-color="#803300" offset="0" id="imagebot_135"/>
   <stop stop-color="#803300" stop-opacity="0" offset="1" id="imagebot_134"/>
  </linearGradient>
  <marker orient="auto" refX="0" refY="0" id="imagebot_65">
   <path stroke="#000000" stroke-width="1pt" fill-rule="evenodd" d="M-2.5,-1C-2.5,1.76 -4.74,4 -7.5,4S-12.5,1.76 -12.5,-1S-10.26,-6 -7.5,-6S-2.5,-3.76 -2.5,-1z" transform="scale(.8) translate(7.4 1)" id="imagebot_133"/>
  </marker>
  <linearGradient id="imagebot_126">
   <stop stop-color="#1a1a1a" offset="0" id="imagebot_132"/>
   <stop stop-color="#1a1a1a" stop-opacity="0" offset="1" id="imagebot_131"/>
  </linearGradient>
  <linearGradient id="imagebot_127">
   <stop stop-color="#ffffff" offset="0" id="imagebot_130"/>
   <stop stop-color="#ffffff" stop-opacity="0" offset="1" id="imagebot_129"/>
  </linearGradient>
  <filter x="-0.25128" y="-0.25128" width="1.5026" height="1.5026" id="imagebot_68">
   <feGaussianBlur  stdDeviation="5.18243" id="imagebot_128"/>
  </filter>
  <radialGradient gradientTransform="matrix(1 0 0 1 105.56 65.154)" r="24.749" cx="434.11" cy="421.77" gradientUnits="userSpaceOnUse" xlink:href="#imagebot_127" id="imagebot_71"/>
  <linearGradient x1="0" y1="0.5" x2="1" xlink:href="#imagebot_126" y2="0.5" id="imagebot_67"/>
  <linearGradient x1="0.85332" y1="0.60195" x2="0.57938" y2="0.49996" id="imagebot_60">
   <stop stop-color="#000000" offset="0" id="imagebot_125"/>
   <stop stop-color="#000000" stop-opacity="0" offset="1" id="imagebot_124"/>
  </linearGradient>
  <linearGradient x1="0.47463" y1="0.71623" x2="0.46572" y2="0.64839" id="imagebot_84">
   <stop stop-color="#803300" offset="0" id="imagebot_123"/>
   <stop stop-color="#803300" stop-opacity="0" offset="1" id="imagebot_122"/>
  </linearGradient>
  <filter id="imagebot_54">
   <feGaussianBlur  stdDeviation="1.98864" id="imagebot_121"/>
  </filter>
  <filter id="imagebot_50">
   <feGaussianBlur  stdDeviation="1.93893" id="imagebot_120"/>
  </filter>
  <filter id="imagebot_52">
   <feGaussianBlur  stdDeviation="1.93893" id="imagebot_119"/>
  </filter>
  <filter id="imagebot_56">
   <feGaussianBlur  stdDeviation="0.65806" id="imagebot_118"/>
  </filter>
  <filter id="imagebot_58">
   <feGaussianBlur  stdDeviation="0.65806" id="imagebot_117"/>
  </filter>
  <filter id="imagebot_43">
   <feGaussianBlur  stdDeviation="0.04864" id="imagebot_116"/>
  </filter>
  <radialGradient r="17.945" gradientTransform="matrix(-.019669 .073358 -.90643 -.24304 617.34 643.46)" cx="138.02" cy="525.8" gradientUnits="userSpaceOnUse" xlink:href="#imagebot_115" id="imagebot_47"/>
  <radialGradient r="17.945" gradientTransform="matrix(-.021995 .072694 -.64046 -.19378 480.41 617.97)" cx="138.02" cy="525.8" gradientUnits="userSpaceOnUse" xlink:href="#imagebot_115" id="imagebot_45"/>
  <radialGradient r="17.945" gradientTransform="matrix(-.021995 .072694 -.64046 -.19378 456.24 619.44)" cx="138.02" cy="525.8" gradientUnits="userSpaceOnUse" xlink:href="#imagebot_115" id="imagebot_42"/>
  <linearGradient x1="4.15267" y1="0.56708" x2="-0.63307" y2="0.49998" id="imagebot_88">
   <stop stop-color="#ffffff" offset="0" id="imagebot_114"/>
   <stop stop-color="#ffffff" stop-opacity="0" offset="1" id="imagebot_113"/>
  </linearGradient>
 </defs>
 <g label="Layer 1" id="imagebot_2">
  <path label="Layer 1" filter="url(#imagebot_25)" fill="url(#imagebot_24)" d="M274,507.36C274,515.09 243.54,521.36 206,521.36S138,515.09 138,507.36S168.46,493.36 206,493.36S274,499.63 274,507.36z" transform="matrix(0.7548 0 0 0.61103 -104.162 -218.223)" id="imagebot_23"/>
  <title>Layer 1</title>
  <g transform="translate(-1.6384 0) matrix(0.796609 0 0 0.796609 13.0053 17.3097)" id="imagebot_38">
   <path transform="translate(-0.65536 0.65536) matrix(1 0 0 1 -246.092 -35.3929)" label="Layer 1" fill="url(#imagebot_37)" d="M343.76,83.695C343.76,87.148 343.38,110.47 342.66,113.71C340.9,122.59 335.19,127.71 326.61,129.65C322.63,130.39 318.1,114.09 313.18,114S302.95,130.03 297.42,130.03C291.86,130.03 286.53,113.9 281.59,113.98C276.66,114.05 272.11,130.33 268.11,129.56C259.07,128.06 254.34,121.87 252.12,113.42C251.44,110.27 251.08,87.044 251.08,83.695C251.08,58.118 271.84,37.359 297.42,37.359S343.76,58.118 343.76,83.695z" id="imagebot_22"/>
   <path transform="translate(-0.32768 0.32768) matrix(1 0 0 1 -246.42 -34.7376)" label="Layer 1" fill="url(#imagebot_18)" d="M343.76,83.695C343.76,87.148 343.38,110.47 342.66,113.71C340.9,122.59 335.19,127.71 326.61,129.65C322.63,130.39 318.1,114.09 313.18,114S302.95,130.03 297.42,130.03C291.86,130.03 286.53,113.9 281.59,113.98C276.66,114.05 272.11,130.33 268.11,129.56C259.07,128.06 254.34,121.87 252.12,113.42C251.44,110.27 251.08,87.044 251.08,83.695C251.08,58.118 271.84,37.359 297.42,37.359S343.76,58.118 343.76,83.695z" id="imagebot_17"/>
   <g label="Layer 1" transform="matrix(0.71287 0 0 0.71287 -94.0924 -262.763)" id="imagebot_13">
    <path fill="#ffffff" d="M 259 424.86 A 15.5 15.5 0 1 1 228 424.86 A 15.5 15.5 0 1 1 259 424.86 z" id="imagebot_16"/>
    <path fill="url(#imagebot_11)" d="M 259 424.86 A 15.5 15.5 0 1 1 228 424.86 A 15.5 15.5 0 1 1 259 424.86 z" id="imagebot_15"/>
    <path fill="#000000" transform="matrix(.61290 0 0 .61290 101.71 169.75)" d="M255,417.86A15.5,15.5 0 1 1 224,417.86A15.5,15.5 0 1 1 255,417.86z" id="imagebot_14"/>
   </g>
   <g label="Layer 1" transform="matrix(0.71287 0 0 0.71287 -122.612 -262.763)" id="imagebot_8">
    <path fill="#ffffff" d="M 259 424.86 A 15.5 15.5 0 1 1 228 424.86 A 15.5 15.5 0 1 1 259 424.86 z" id="imagebot_12"/>
    <path fill="url(#imagebot_11)" d="M 259 424.86 A 15.5 15.5 0 1 1 228 424.86 A 15.5 15.5 0 1 1 259 424.86 z" id="imagebot_10"/>
    <path fill="#000000" transform="matrix(.61290 0 0 .61290 101.71 169.75)" d="M255,417.86A15.5,15.5 0 1 1 224,417.86A15.5,15.5 0 1 1 255,417.86z" id="imagebot_9"/>
   </g>
   <path label="Layer 1" filter="url(#imagebot_7)" fill-opacity="0.62745" fill="#ffffff" d="M503.01,647.25C492.98,657.52 482.6,663.67 479.84,660.97C477.07,658.27 482.97,647.74 492.99,637.47C503.02,627.2 513.4,621.06 516.16,623.76C518.93,626.46 513.03,636.98 503.01,647.25z" transform="matrix(0.71287 0 0 0.71287 -327.917 -436.703)" id="imagebot_6"/>
  </g>
  <g id="imagebot_230" transform="rotate(14.0871 87.6899 67.8473) matrix(0.122078 0 0 0.122078 75.8643 54.5536)">
   <g id="imagebot_225">
    <path id="imagebot_233" d="M159.7,39.33L159.7,43.88C159.7,51.15 156.519,57.97 150.62,62.51L92.45,110.22C89.72,112.49 84.73,112.49 82,110.22L23.38,62.51C17.48,57.97 14.3,51.15 14.3,43.88L14.3,39.33L159.7,39.33z" fill="#ECEFF9"/>
    <path id="imagebot_234" d="M164.248,30.247L9.752,30.247C7.025,30.247 5.208,32.064 5.208,34.791L5.208,43.879C5.208,53.877 9.752,63.418 17.478,69.781L76.095,117.493C77.912,118.855 80.184,120.218 82.456,120.675L82.456,193.832C82.456,198.828 78.367,202.92 73.368,202.92L59.736,202.92C57.009,202.92 55.192,204.739 55.192,207.464S57.009,212.008 59.736,212.008L73.368,212.008L100.632,212.008L114.264,212.008C116.989,212.008 118.808,210.189 118.808,207.464S116.989,202.92 114.264,202.92L100.632,202.92C95.636,202.92 91.544,198.828 91.544,193.832L91.544,120.675C93.816,120.218 96.088,118.856 97.907,117.493L156.522,69.781C164.248,63.418 168.792,53.877 168.792,43.879L168.792,34.791C168.792,32.063 166.973,30.247 164.248,30.247M159.704,43.878C159.704,51.149 156.522,57.965 150.616,62.509L91.996,110.221C89.271,112.491 84.728,112.491 81.546,110.221L23.384,62.509C17.93,57.965 14.296,51.149 14.296,43.878L14.296,39.334L159.704,39.334L159.704,43.878z" fill="#004463"/>
    <path id="imagebot_235" d="M123.352,39.334L123.352,43.878C123.352,51.149 120.17,57.965 114.264,62.509L74.73,104.313L81.546,109.767C84.273,112.039 89.271,112.039 91.996,109.767L150.616,62.51C156.069,57.966 159.704,51.15 159.704,43.879L159.704,39.335L123.352,39.335L123.352,39.334z" fill="#B9D5EA"/>
    <path id="imagebot_236" d="M18.385,57.511C19.747,59.328 21.112,61.145 22.929,62.51L81.546,110.222C84.273,112.492 89.271,112.492 91.996,110.222L150.616,62.51C152.43,61.145 153.798,59.328 155.16,57.511L18.385,57.511z" fill="#70B7E5"/>
    <path id="imagebot_237" d="M119.266,57.511C117.899,59.328 116.537,61.145 114.721,62.51L75.185,104.314L82.001,109.768C84.728,112.04 89.729,112.04 92.453,109.768L150.616,62.511C152.435,61.146 153.798,59.329 155.16,57.512L119.266,57.512L119.266,57.511z" fill="#4C9CD6"/>
    <g id="imagebot_227">
     <path d="M100.632,71.143C105.647,71.143 109.72,75.214 109.72,80.231C109.72,85.252 105.647,89.319 100.632,89.319S91.544,85.252 91.544,80.231C91.544,75.214 95.617,71.143 100.632,71.143" fill="#90C962" id="imagebot_229"/>
     <path d="M188.5,5.88C188.43,5.78 188.29,5.75 188.19,5.82C188.19,5.82 187.7,6.13 186.79,6.71C185.9,7.3 184.56,8.15 182.9,9.28C179.57,11.53 174.879,14.82 169.37,18.9C166.61,20.93 163.64,23.16 160.53,25.56C157.42,27.95 154.17,30.51 150.83,33.18C147.49,35.85 144.08,38.66 140.62,41.51C137.17,44.4 133.68,47.33 130.23,50.31C128.5,51.79 126.78,53.28 125.08,54.79C123.37,56.29 121.66,57.77 120,59.28C117.36,61.63 114.78,63.98 112.27,66.3C109.111,63.65 105.05,62.05 100.63,62.05C90.63,62.05 82.46,70.23 82.46,80.23C82.46,84.58 84.01,88.59 86.58,91.73C84.86,93.59 83.37,95.23 82.13,96.62C79.63,99.44 78.19,101.19 78.02,101.41C78.25,101.27 80.19,100.09 83.35,98.02C84.95,96.97 86.86,95.68 89.03,94.18C92.179,96.82 96.23,98.41 100.63,98.41C110.63,98.41 118.81,90.23 118.81,80.23C118.81,77.63 118.26,75.15 117.26,72.91C120.05,70.65 122.901,68.32 125.75,65.93C127.49,64.5 129.2,63.02 130.93,61.55C132.66,60.09 134.39,58.6 136.1,57.09C139.55,54.11 142.951,51.08 146.3,48.09C149.63,45.07 152.901,42.1 156.02,39.18C159.151,36.26 162.14,33.41 164.96,30.67C167.78,27.95 170.41,25.33 172.82,22.89C177.65,18.02 181.58,13.85 184.29,10.88C185.65,9.41 186.68,8.2 187.4,7.4C188.099,6.59 188.48,6.15 188.48,6.15C188.54,6.08 188.55,5.97 188.5,5.88zM100.63,89.32C99.33,89.32 98.09,89.04 96.96,88.54C95.31,87.8 93.91,86.59 92.94,85.06C92.049,83.66 91.54,82 91.54,80.23C91.54,75.23 95.64,71.14 100.63,71.14C102.441,71.14 104.13,71.68 105.55,72.6C107.72,74.01 109.26,76.31 109.63,78.97C109.691,79.38 109.72,79.8 109.72,80.23C109.72,85.23 105.63,89.32 100.63,89.32z" fill="#004463" id="imagebot_228"/>
    </g>
    <g id="imagebot_226">
     <path id="imagebot_238" d="M78,59.117C75.338,59.117 73.117,61.338 73.117,64S75.338,68.883 78,68.883S82.883,66.662 82.883,64S80.662,59.117 78,59.117z" fill="#90CEF1"/>
     <path id="imagebot_239" d="M57,66.099C50.249,66.099 50.249,76.568 57,76.568S63.751,66.099 57,66.099z" fill="#90CEF1"/>
     <path id="imagebot_240" d="M72,78.758C67.818,78.758 67.818,85.242 72,85.242S76.182,78.758 72,78.758z" fill="#90CEF1"/>
     <path id="imagebot_241" d="M39,65.651C37.69,65.651 37.69,67.682 39,67.682S40.31,65.651 39,65.651z" fill="#90CEF1"/>
     <path id="imagebot_242" d="M133.667,61.057C127.722,61.057 127.722,70.276 133.667,70.276S139.612,61.057 133.667,61.057z" fill="#90CEF1"/>
     <path id="imagebot_243" d="M87.334,101.419C84.865,101.419 84.865,105.247 87.334,105.247S89.803,101.419 87.334,101.419z" fill="#90CEF1"/>
    </g>
   </g>
  </g>
  <g transform="rotate(9.5855 51.2904 74.4089) matrix(3.26808 0 0 3.26808 12.9054 15.2065)" id="imagebot_136">

   <g transform="matrix(0.0310402 0 0 0.0310402 0 0)" label="Layer 1" id="imagebot_40">
    <g transform="translate(.125 -1.391)" id="imagebot_48">
     <path fill-rule="evenodd" stroke="#000000" stroke-width="1px" fill="#000000" d="M646.75,518.48L680.95,518.35C681.43,518.59 681.9,518.83 682.38,519.06C683.92,519.84 683.92,522.04 685.23,523.35C685.91,524.02 685.04,527.69 684.88,528.35C684.39,530.31 683.78,532.01 683.45,533.35C683.13,534.64 681.4,536.02 680.95,536.92C680.59,537.63 679.51,537.01 679.16,536.92L645.82,536.84C645.82,539.13 644.88,531.71 644.88,529.42C644.88,527.44 645.23,526.06 645.23,524.42C645.23,522.16 645.81,520.34 646.75,518.48z" id="imagebot_112"/>
     <path fill-rule="evenodd" stroke="#000000" stroke-width="1px" fill="#333333" d="M701.47,541.5L700.59,483.71C696.24,487.72 690.84,484.93 685.59,485.13L685.59,498.35L677.38,517.28C677.92,520.1 680.25,523.05 680.95,526.56C681.3,530 680.12,533.71 677.73,536.21C677.03,538.31 678.68,539.51 677.86,541.52L686.66,541.56L690.59,537.63L693.09,541.56L701.47,541.5z" id="imagebot_111"/>
     <path fill-rule="evenodd" stroke="#000000" stroke-width="1px" fill="#000000" d="M701.66,517.28L727.73,517.28C729.74,520.33 731.25,522.44 731.31,526.21C731.64,530.01 730.11,533.59 728.45,536.92L702.02,536.56L701.66,517.28z" id="imagebot_110"/>
     <path fill-rule="evenodd" stroke="#000000" stroke-width="1px" fill="#333333" d="M562.02,493.35L568.45,495.85L575.23,495.13L574.88,497.28L622.73,497.99C622.85,497.99 623.04,497.89 623.09,497.99C624.43,501.78 626.53,505.31 629.16,508.35C633.64,514.26 641.26,516.55 648.45,515.49C647.93,519.74 650.18,523.82 650.53,527.99C650.53,531.39 647.08,536.94 647.31,536.65L647.38,541.21L620.95,541.21C620.95,540.55 620.56,538.12 620.95,537.63C621.43,537.04 621.9,536.44 622.38,535.85L575.23,535.49C574.41,533.84 573.1,538.97 571.31,539.42C570.26,539.68 568.81,539.42 567.73,539.42L567.73,495.49" id="imagebot_109"/>
     <path fill-rule="evenodd" stroke="#000000" stroke-width="1px" fill="#d45500" d="M562.29,493.44C535.18,491.14 509.53,491.3 482.73,491.3C480.05,491.3 478.22,489.93 478.81,492.28C478.55,499.18 478.57,506.07 478.81,512.99C478.81,513.11 480.06,512.61 480.06,512.72L513.45,514.6C531.15,515.56 544.78,527.28 562.38,527.28C564.95,527.28 563.2,506.7 564.88,503.35C565.43,502.24 563.95,499.66 563.81,499.06C563.24,496.78 564.6,495.29 562.29,493.44z" id="imagebot_108"/>
     <path fill-rule="evenodd" stroke="#000000" stroke-width="1px" fill="#803300" d="M442.02,517.63L441.66,555.85C442.26,556.09 442.85,556.33 443.45,556.56C444.9,557.14 445.1,558.56 447.38,557.99C458.15,555.21 468.85,549.06 480.23,549.06C505.9,544.18 533.63,548.86 559.16,543.71C561.47,543.13 561.62,543.5 562.02,541.92C563.3,533.85 565.96,523.75 562.91,515.85C561.71,516.59 559.3,515.15 554.97,515.13C542.09,515.06 519.2,514.22 516.04,514.69C499.31,516.3 495.62,517.17 481.71,514.9C480.35,514.67 480.05,516.9 478.45,516.56C477.91,516.29 474.89,516.56 473.81,516.56L472.73,516.56L442.02,515.85C441.43,515.85 442.02,517.04 442.02,517.63z" id="imagebot_107"/>
     <path fill-rule="evenodd" stroke="#000000" stroke-width="1px" fill="#000000" d="M525.39,514.78C519.01,514.85 512.12,513.42 505.78,513.32C498.49,510.29 490.08,511.31 482.64,513.31C478.13,513.46 473.58,513.01 469.08,513.82C468.48,513.98 468.84,514.63 468.85,515.07C468.86,515.42 469.07,515.91 469.16,516.23C473.7,514.77 479.03,516.89 482.54,515.73C489.27,517.61 499.35,519.99 505.68,515.74C511.68,513.81 518.88,514.8 525.38,514.6C527.86,515.82 501.94,514.29 504.74,514.25C524.2,513.79 526.71,513.31 526.98,514.94C527.05,515.37 526.55,514.31 527.18,513.91C527.61,513.62 526.17,513.63 526.27,514.11C526.6,515.73 528.27,514.9 527.65,514.23C526.66,513.15 527.6,513.67 525.39,514.78z" id="imagebot_106"/>
     <path fill-rule="evenodd" stroke="#000000" stroke-width="1px" fill="#666666" d="M479.25,491.3L472.38,490.85L472.65,516.12C474.64,516.25 477.08,516.75 478.54,516.38L479.25,491.3z" id="imagebot_105"/>
     <path fill-rule="evenodd" stroke="#000000" stroke-width="1px" fill="#333333" d="M440.95,555.49C439.97,555.41 437.39,554.07 436.31,552.99C435.31,551.99 433.45,552.49 433.45,550.13L433.45,544.78C433.45,542.78 434.16,542.09 434.16,540.13L434.16,531.92C434.16,530.12 434.47,527.5 434.88,525.85C435.37,523.88 435.23,521.47 435.23,519.42L435.23,514.42L435.23,509.42C435.23,506.89 434.88,506.03 432.73,505.49C431.07,505.08 429.67,505.13 427.73,505.13C425.67,505.13 424.68,505.18 423.09,504.78C421.35,504.34 420.42,503.84 418.81,502.63C417.43,501.6 416.9,499.9 416.31,498.71C415.25,496.58 415.04,496.96 415.95,495.13C416.65,493.73 417.9,493.61 419.52,494.42C420.73,495.02 423.09,494.78 424.52,494.78C426.27,494.78 427.18,495.49 429.16,495.49C430.77,495.49 432.29,494.78 434.16,494.78C436.07,494.78 437.37,494.42 439.16,494.42C440.55,494.42 442.53,494.06 444.16,494.06C445.97,494.06 447.48,494.42 449.16,494.42C451.38,494.42 452.37,494.06 454.52,494.06C456.11,494.06 457.4,492.98 459.16,492.28C461.09,491.51 461.16,491.71 462.38,490.49C463.68,489.19 463.75,488.66 465.59,487.28C466.69,486.46 469.42,486.98 470.59,487.28C472.34,487.71 472.76,489.16 473.09,490.49C471.27,496.6 476.55,519.36 470.15,523.26C467.83,523.84 470.01,515 468.45,516.56C467.38,517.64 465.46,517.94 463.81,518.35C462.02,518.8 460.07,518.71 458.09,518.71C455.65,518.71 452.49,518.55 450.23,517.99C444.28,516.5 446.22,520.7 445.59,525.13C445.07,528.77 445.23,532.53 445.23,536.21L445.23,544.06L445.23,549.78C445.23,551.55 444.52,553.21 444.52,555.13C442.41,556.68 441.82,557.98 440.95,555.49z" id="imagebot_104"/>
     <path fill-rule="evenodd" stroke="#000000" stroke-width="1px" fill="#1a1a1a" d="M427.02,495.13C426.35,492.54 424.51,491.99 422.02,491.56C418.49,491.52 417.13,490.42 414.88,487.99C414.28,487.69 417.44,487.63 418.45,487.63C421.88,487.74 425.2,487.78 428.45,486.56C430.24,485.85 432.08,485.49 433.09,485.49C433.6,485.49 435.65,486.94 437.02,487.28C445.36,485.21 453.5,486.82 461.66,487.28C463.32,487.28 464.97,487.26 464.52,489.06C463.99,491.18 463.46,492.26 462.38,493.35C461.08,494.65 459.6,494.67 457.73,495.13C450.46,496.67 442.98,495.85 435.59,495.85C432.97,495.7 428.36,497.74 427.02,495.13z" id="imagebot_103"/>
     <path fill-rule="evenodd" stroke="#000000" stroke-width="1px" fill="#666666" d="M430.95,562.1C429.81,570.93 432.55,578.51 435.95,586.56C446.67,607.1 458.49,629.79 477.02,644.42L503.45,663.71C496.26,671.35 484.44,705.61 474.88,706.21C463.61,699.43 451.84,692.83 441.66,684.42C419.62,664.43 403.17,639.88 391.66,612.63C386.85,601.72 384.54,590.24 381.13,578.88C381.07,578.78 377.73,576.5 377.73,576.38C377.73,575.8 375.42,563.57 375.23,562.63" id="imagebot_102"/>
     <path fill-rule="evenodd" stroke="#000000" stroke-width="1px" fill="#d45500" d="M209.88,558.35L47.02,615.49C46.892,616.01 41.132,614.56 40.592,614.42C38.504,613.9 38.3,613.82 37.735,611.56L25.949,539.06C23.216,538.38 28.655,533.11 28.806,532.99L127.02,521.56C136.9,521.49 144.93,527.57 154.88,527.63L211.31,522.28L209.88,558.35z" id="imagebot_101"/>
     <path fill-rule="evenodd" stroke="#000000" stroke-width="1px" fill="#333333" d="M434.52,564.42L435.59,496.21L227.02,496.21L209.16,518.35L209.88,560.13C210.47,560.61 211.07,561.09 211.66,561.56C212.94,562.58 216.22,562.26 217.73,562.63C219.28,563.02 221.5,562.63 223.09,562.63C225.04,562.63 225.91,563.35 228.09,563.35C230.16,563.35 231.4,562.75 232.38,562.99C233.81,563.35 232.79,565.96 233.45,567.28C233.91,568.2 236.47,568.71 237.73,568.71C239.35,568.71 240.61,567.91 242.38,568.35C244.45,568.87 245.4,568.54 246.66,567.28C247.64,566.3 250.04,566.21 252.02,566.21C253.8,566.21 255.27,564.78 257.38,564.78C259.5,564.78 260.92,563.88 263.09,564.42C263.82,564.6 264.52,564.9 265.23,565.13C269.72,566.63 275.63,563.35 280.23,563.35C282.38,563.35 285.07,563.31 286.66,563.71C288.47,564.16 290.43,564.06 292.38,564.06C294.8,564.06 296.64,565.32 298.81,564.78C301.75,564.04 307.39,565.57 310.59,566.21C311.86,566.46 314.24,565.12 315.59,564.78C317.59,564.28 320.31,564.78 322.38,564.78C324.34,564.78 326.05,564.42 328.09,564.42C330.25,564.42 332.48,564.57 334.52,564.06C336.62,563.54 338.93,563.85 340.95,563.35C342.53,562.95 344.92,563.36 346.31,563.71C348.05,564.14 349.99,563.64 351.66,564.06C354.87,564.87 357.49,565.85 360.95,565.85C362.73,565.85 364.17,565.22 365.95,564.78C367.41,564.41 369.78,564 370.95,563.71C371.37,563.6 373.68,564.75 373.81,564.78L434.52,564.42z" id="imagebot_100"/>
     <path fill-rule="evenodd" stroke="#000000" stroke-width="1px" fill="#000000" d="M326.66,589.78C327.11,592.12 321.89,593.58 319.88,591.92C317.42,589.85 314.87,587.88 312.38,585.85C309.35,584.42 307.06,582.67 304.88,580.13C303.94,579.2 302.12,578.45 301.31,577.63C300.22,576.55 299.4,575.37 301.31,575.85C304.68,576.64 306.29,579.82 309.16,581.56C309.61,581.79 310.54,576.76 310.59,576.56C311.25,573.94 310.15,574.62 312.38,574.06C320.31,578.65 311.45,584 326.66,589.78z" id="imagebot_99"/>
     <path fill-rule="evenodd" stroke="#000000" stroke-width="1px" fill="#808080" d="M252.29,568.62C253.04,570.71 251.42,577.3 251.84,580.13C252.02,580.86 255.85,578.86 256.66,579.06C258.32,579.48 259.61,579.71 261.31,580.13C263.14,580.59 264.7,581.21 266.66,581.21C268.49,581.21 269.6,581.92 271.66,581.92L276.66,581.92C278.39,581.92 280.09,582.33 281.31,582.63C282.76,583 284.8,582.63 286.31,582.63L291.66,582.63C293.42,582.63 295.1,582.6 296.66,582.99C299.18,583.62 300.78,583.6 301.84,582.19C302.8,579.15 303.21,573.35 300.23,571.56C298.88,571.22 296.44,571.95 294.88,571.56C293.37,571.19 292.06,571.21 290.23,571.21C288.55,571.21 286.9,570.13 284.88,570.13C283,570.13 280.82,569.78 278.81,569.78C276.52,569.78 275.32,569.92 273.45,570.85C272.42,571.36 269.13,570.49 267.73,570.49C266.1,570.49 264.15,570.13 262.38,570.13C260.28,570.13 254.56,568.62 252.29,568.62z" id="imagebot_98"/>
     <path fill-rule="evenodd" stroke="#000000" stroke-width="1px" fill="#000000" d="M300.23,598.35C301.78,597.96 298.78,595.25 299.16,593.71C299.63,591.84 299.22,591.56 301.31,591.56L310.23,600.13L336.66,600.85L343.09,595.49L347.73,597.28L337.73,606.92L309.52,606.21L300.23,598.35z" id="imagebot_97"/>
     <path fill-rule="evenodd" stroke="#000000" stroke-width="1px" fill="#808080" d="M340.95,569.78C337.89,575.4 339.68,589.82 341.31,596.56C345.29,600.96 365.48,598.64 371.66,597.28C372,600.07 369.11,602.8 372.38,604.42C374.22,604.88 375.02,597.23 375.23,596.39C375.02,589 376.88,581.73 377.38,574.42C376.82,570.96 376.12,567.54 375.59,564.06C371.93,560.59 366.35,561.56 361.66,561.56C358.69,563.12 360.56,566.8 357.38,569.06C356.1,569.7 352.88,568.65 351.66,568.35C350.14,567.97 347.78,567.99 346.31,567.99C343.97,567.99 343.14,568.46 340.95,569.78z" id="imagebot_96"/>
     <path fill-rule="evenodd" stroke="#000000" stroke-width="1px" fill="#666666" d="M265.59,575.31C264.77,574.4 256.31,573.35 255.41,572.46C250.16,566.73 241.49,572.93 238.63,565.67C246.3,562.95 249.03,568.69 256.13,564.6C258.69,562.87 265.3,558.99 268.45,558.88C297.6,569.14 336.77,550.7 364.52,562.28C367.46,572.53 350.28,568.64 344.16,571.56C342.55,576.22 340.95,580.64 335.59,581.92C331.47,581.73 331.37,578.81 330.95,575.49C323.08,576.36 315.2,576.26 307.38,574.06C294.07,571.31 278.87,577.5 265.59,575.31z" id="imagebot_95"/>
     <path fill-rule="evenodd" stroke="#000000" stroke-width="1px" fill="#aa4400" d="M253.45,577.99C252.85,578.11 252.26,578.23 251.66,578.35C249.21,582.35 251.44,587.94 252.38,592.28C252.45,594.51 252.35,596.92 251.66,599.06C251.4,608.9 220.87,654.15 230.59,659.78L268.81,660.13C271.25,660.49 275.93,657.17 277.38,654.42C278.58,650.05 276.78,646.43 274.88,642.63L289.52,605.49C292.68,602.72 297.9,601.94 299.88,597.99L302.38,581.21L253.45,577.99z" id="imagebot_94"/>
     <path fill-rule="evenodd" stroke="#000000" stroke-width="1px" fill="#1a1a1a" d="M282.02,523.35L323.45,523.26C325.83,523.25 326.15,524.76 326.48,527.01C326.48,528.47 324.49,530.85 323.45,530.85L282.02,530.76C280.14,530.76 279.79,528.27 279.79,526.38C279.79,525.97 281.53,523.35 282.02,523.35z" id="imagebot_93"/>
     <path fill-rule="evenodd" stroke="#000000" stroke-width="1px" fill="#ffffff" d="M290.5,525.67C288.57,525.41 287.55,526.54 287.65,528.53C287.65,528.73 289.79,529.72 290.46,528.12C290.66,527.63 290.65,526.67 290.5,525.67z" id="imagebot_92"/>
     <path stroke="#000000" stroke-width="1px" fill="none" d="M209.88,519.78L434.88,519.42" id="imagebot_91"/>
     <path fill-rule="evenodd" stroke="#000000" stroke-width="1px" fill="#1a1a1a" d="M365.95,551.56C365.8,549.11 366.45,546.92 363.81,546.92C362.25,546.92 361.79,546.56 360.23,546.56L360.59,541.21L359.16,541.21L359.52,494.78C358.09,494.78 355.99,491.37 355.59,490.85L355.59,464.06L382.38,464.06L382.02,491.56C381.84,491.56 378.84,496.87 378.81,496.92C378.66,497.11 378.81,496.44 378.81,496.21L380.23,542.63C380.12,543.23 380,543.83 379.88,544.42C379.5,546.31 378.09,546.12 376.31,546.56C374.14,547.11 373.09,545.35 373.09,547.63C373.09,549.43 372.73,550.92 372.73,552.63C372.73,553.84 369.06,553.35 368.09,553.35C365.87,553.35 364.36,554.21 365.95,551.56z" id="imagebot_90"/>
     <path stroke="#000000" stroke-width="1px" fill="none" d="M378.81,542.63L380.59,542.28" id="imagebot_89"/>
     <path opacity="0.64783" fill-rule="evenodd" stroke="#000000" stroke-width="1px" fill="url(#imagebot_88)" d="M366.09,551.29C365.94,548.84 366.59,546.65 363.95,546.65C362.39,546.65 361.93,546.29 360.38,546.29L360.73,540.94L359.3,540.94L359.66,494.51C358.23,494.51 356.13,491.1 355.73,490.58L355.73,463.79L382.52,463.79L382.16,491.29C381.98,491.29 378.98,496.6 378.95,496.65C378.8,496.84 378.95,496.17 378.95,495.94L380.38,542.36C380.26,542.96 380.14,543.55 380.02,544.15C379.64,546.04 378.23,545.85 376.45,546.29C374.28,546.83 373.23,545.08 373.23,547.36C373.23,549.16 372.88,550.65 372.88,552.36C372.88,553.57 369.2,553.08 368.23,553.08C366.01,553.08 364.5,553.94 366.09,551.29z" id="imagebot_87"/>
     <path fill-rule="evenodd" stroke="#000000" stroke-width="1px" fill="#000000" d="M371.06,507.36C367.28,507.36 366.31,507.92 367.15,509.59C368.19,511.67 367.62,511.92 369.29,512.34C372.2,513.07 371.73,508.2 371.06,507.36z" id="imagebot_86"/>
     <path fill-rule="evenodd" stroke="#000000" stroke-width="1px" fill="#000000" d="M369.16,524.78C371.23,525.29 371.5,527.6 373.05,528.75C374.27,533.08 374.66,528.08 374.16,524.78C373.77,521.84 372.61,518.13 370.82,515.78C366.51,515.22 366.25,520.28 364.88,523.35C364.03,537.21 367.03,525.05 369.16,524.78z" id="imagebot_85"/>
     <path fill-rule="evenodd" fill="url(#imagebot_84)" d="M209.23,558.15L46.38,615.29C46.247,615.81 40.487,614.36 39.947,614.22C37.859,613.7 37.655,613.62 37.09,611.36C37.095,594.4 19.088,542.51 28.161,532.79L126.38,521.36C136.25,521.29 144.28,527.37 154.23,527.44L210.66,522.08L209.23,558.15z" id="imagebot_83"/>
     <path fill-rule="evenodd" stroke="#000000" stroke-width="1px" fill="#ffffff" d="M295.09,525.71C293.16,525.45 292.14,526.58 292.24,528.57C292.24,528.77 294.38,529.76 295.05,528.16C295.25,527.68 295.24,526.71 295.09,525.71z" id="imagebot_82"/>
     <path fill-rule="evenodd" stroke="#000000" stroke-width="1px" fill="#000000" d="M507.19,514.95C513.57,514.95 520.44,513.45 526.78,513.29C534.04,510.18 542.46,511.11 549.91,513.04C554.42,513.14 558.97,512.65 563.48,513.4C564.08,513.56 563.73,514.21 563.72,514.66C563.71,515 563.52,515.49 563.43,515.81C558.88,514.4 553.56,516.57 550.04,515.45C543.34,517.41 533.28,519.89 526.91,515.7C520.88,513.84 513.69,514.9 507.19,514.77C504.72,516.01 530.63,514.22 527.83,514.2C508.36,513.95 505.85,513.49 505.6,515.13C505.53,515.56 506.02,514.5 505.39,514.1C504.95,513.82 506.39,513.8 506.3,514.29C505.98,515.91 504.31,515.1 504.92,514.42C505.89,513.33 504.96,513.86 507.19,514.95z" id="imagebot_81"/>
     <path fill-rule="evenodd" stroke="#000000" stroke-width="1px" fill="#666666" d="M567.38,495.49C566.78,495.37 566.19,495.25 565.59,495.13C564.26,494.87 562.98,494.39 561.66,494.06L561.48,543.17C559.9,542.85 565.2,542.78 565.59,541.21C565.78,540.47 567.18,539.97 567.73,539.42L567.38,495.49z" id="imagebot_80"/>
     <g id="imagebot_61">
      <g transform="matrix(0.136 -.044786 .044786 0.136 378.79 457.75)" id="imagebot_73">
       <path fill-rule="evenodd" fill="#999999" d="M 511.6399987792969 456.1150012207031 A 24.749 24.749 0 1 1 462.1399987792969 456.1150012207031 A 24.749 24.749 0 1 1 511.6399987792969 456.1150012207031 z" id="imagebot_79"/>
       <path fill-rule="evenodd" fill="url(#imagebot_71)" d="M 511.6399987792969 454.3469996643066 A 24.749 24.749 0 1 1 462.1399987792969 454.3469996643066 A 24.749 24.749 0 1 1 511.6399987792969 454.3469996643066 z" id="imagebot_78"/>
       <path fill-rule="evenodd" filter="url(#imagebot_68)" fill="url(#imagebot_67)" d="M 509.87300048828126 456.1150012207031 A 24.749 24.749 0 1 1 460.37300048828126 456.1150012207031 A 24.749 24.749 0 1 1 509.87300048828126 456.1150012207031 z" id="imagebot_77"/>
       <path fill-rule="evenodd" filter="url(#imagebot_68)" fill="url(#imagebot_67)" transform="matrix(.44721 -.89443 .89443 .44721 -89.545 653.25)" d="M458.86,421.77A24.749,24.749 0 1 1 409.36,421.77A24.749,24.749 0 1 1 458.86,421.77z" id="imagebot_76"/>
       <path stroke="#000000" stroke-linecap="round" stroke-width="5.3" marker-mid="url(#imagebot_65)" fill="none" d="M487.4,436.93L487.4,477.33" id="imagebot_75"/>
       <path stroke="#000000" stroke-linecap="round" stroke-width="5.3" fill="none" d="M507.6,457.13L467.2,457.13" id="imagebot_74"/>
      </g>
      <g transform="matrix(.10118 .10131 -.10131 .10118 462.02 415.08)" id="imagebot_62">
       <path fill-rule="evenodd" fill="#999999" d="M 511.6399987792969 456.1150012207031 A 24.749 24.749 0 1 1 462.1399987792969 456.1150012207031 A 24.749 24.749 0 1 1 511.6399987792969 456.1150012207031 z" id="imagebot_72"/>
       <path fill-rule="evenodd" fill="url(#imagebot_71)" d="M 511.6399987792969 454.3469996643066 A 24.749 24.749 0 1 1 462.1399987792969 454.3469996643066 A 24.749 24.749 0 1 1 511.6399987792969 454.3469996643066 z" id="imagebot_70"/>
       <path fill-rule="evenodd" filter="url(#imagebot_68)" fill="url(#imagebot_67)" d="M 509.87300048828126 456.1150012207031 A 24.749 24.749 0 1 1 460.37300048828126 456.1150012207031 A 24.749 24.749 0 1 1 509.87300048828126 456.1150012207031 z" id="imagebot_69"/>
       <path fill-rule="evenodd" filter="url(#imagebot_68)" fill="url(#imagebot_67)" transform="matrix(.44721 -.89443 .89443 .44721 -89.545 653.25)" d="M458.86,421.77A24.749,24.749 0 1 1 409.36,421.77A24.749,24.749 0 1 1 458.86,421.77z" id="imagebot_66"/>
       <path stroke="#000000" stroke-linecap="round" stroke-width="5.3" marker-mid="url(#imagebot_65)" fill="none" d="M487.4,436.93L487.4,477.33" id="imagebot_64"/>
       <path stroke="#000000" stroke-linecap="round" stroke-width="5.3" fill="none" d="M507.6,457.13L467.2,457.13" id="imagebot_63"/>
      </g>
     </g>
     <path fill-rule="evenodd" stroke="url(#imagebot_60)" stroke-width="1px" fill="url(#imagebot_60)" d="M253.43,577.93C252.83,578.05 252.24,578.17 251.64,578.29C249.19,582.29 251.42,587.88 252.36,592.21C252.44,594.45 252.33,596.85 251.64,599C251.38,608.84 220.85,654.09 230.57,659.71L268.79,660.07C271.23,660.43 275.91,657.11 277.36,654.36C278.56,649.98 276.76,646.37 274.86,642.57L289.5,605.43C292.67,602.66 297.88,601.88 299.86,597.93L302.36,581.14L253.43,577.93z" id="imagebot_59"/>
     <path filter="url(#imagebot_58)" stroke="#000000" stroke-linecap="round" stroke-width="3.2" fill="none" d="M490.36,667.25L472.02,695.16" id="imagebot_57"/>
     <path filter="url(#imagebot_56)" stroke="#000000" stroke-linecap="round" stroke-width="3.2" fill="none" d="M484.38,662.87L466.04,690.77" id="imagebot_55"/>
     <path filter="url(#imagebot_54)" stroke="#000000" stroke-linecap="round" stroke-width="5" fill="none" d="M475.61,662.87C444.31,643.8 423.85,611.33 418.21,575.17" id="imagebot_53"/>
     <path filter="url(#imagebot_52)" stroke="#000000" stroke-linecap="round" stroke-width="5" fill="none" d="M455.27,673.83C423.97,654.75 403.5,622.28 397.86,586.12" id="imagebot_51"/>
     <path filter="url(#imagebot_50)" stroke="#000000" stroke-linecap="round" stroke-width="5" fill="none" d="M465.24,667.65C433.94,648.57 413.47,616.11 407.83,579.94" id="imagebot_49"/>
    </g>
    <path filter="url(#imagebot_43)" fill-rule="evenodd" fill="url(#imagebot_47)" d="M149.15,525.98C148.08,525.71 146.29,525.42 144.96,525.09C144.29,524.92 143.47,524.85 143,524.73C142.19,524.53 141.44,524.31 140.68,523.93C139.9,523.54 139.05,523.36 138.19,523.22C137.68,523.14 137.22,523.14 136.85,522.95C136.48,522.77 135.95,522.58 135.6,522.24C135.31,521.94 134.43,521.88 134,521.88C133.51,521.88 132.8,521.56 132.31,521.44C131.81,521.31 131.32,521.21 130.79,521.08C129.88,520.85 128.88,521.08 127.94,521.08C126.92,521.08 125.81,521.42 124.82,521.17C124.77,521.16 124.71,521.17 124.65,521.17C124.16,521.17 123.64,521.08 123.13,521.08C122.68,521.08 122.27,521.2 121.79,521.08C121.34,520.97 120.45,521.18 120.19,521.44C119.36,522.27 123.29,525.51 124.11,525.98C124.67,526.3 124.97,526.34 125.63,526.34C126.59,526.34 127.61,526.62 128.57,526.78C130.91,527.17 133.42,528 135.69,528.56C137.35,528.98 135.33,528.5 136.23,528.65C137.05,528.86 138.51,529.13 139.17,529.46C139.79,529.76 140.95,529.81 141.66,529.99C142.38,530.17 143.1,530.26 143.8,530.44C144.32,530.57 144.92,530.53 145.49,530.53S146.52,530.61 147.1,530.61C148.56,530.61 149.64,530.67 151.11,530.35C152.2,530.1 152.87,529.79 153.87,529.46C154.49,529.25 154.98,528.97 155.38,528.56C156.33,527.62 156,526.69 155.29,526.34C154.39,525.89 151.85,526.08 150.84,525.98C149.69,525.87 148.82,525.79 147.81,525.54C147.28,525.4 146.8,525.31 146.3,525.18C145.11,524.88 144.01,524.35 142.82,524.11C142.36,524.02 141.9,523.87 141.48,523.66C141.05,523.45 140.17,523.4 139.7,523.31C139.07,523.18 138.81,523.04 138.28,522.77C137.85,522.56 137.29,522.58 136.85,522.68C136.59,522.75 136.32,522.68 136.05,522.68L145.32,525.18" id="imagebot_46"/>
    <path filter="url(#imagebot_43)" fill-rule="evenodd" fill="url(#imagebot_45)" d="M151.75,526.29C150.68,526.02 148.9,525.74 147.56,525.4C146.89,525.24 146.07,525.16 145.6,525.05C144.79,524.84 144.04,524.62 143.29,524.25C142.51,523.85 141.66,523.68 140.79,523.53C131.51,519.17 113,521.5 138.3,528.88C139.95,529.29 137.93,528.82 138.83,528.97C139.66,529.17 141.11,529.44 141.77,529.77C142.39,530.08 143.55,530.12 144.27,530.3S145.7,530.57 146.41,530.75C146.93,530.88 147.53,530.84 148.1,530.84S149.13,530.93 149.7,530.93C151.16,530.93 152.25,530.99 153.71,530.66C154.81,530.42 155.47,530.1 156.47,529.77C157.09,529.56 157.58,529.29 157.99,528.88C158.93,527.93 158.6,527 157.9,526.65C157,526.2 154.46,526.4 153.44,526.29C152.29,526.18 151.42,526.1 150.41,525.85C149.88,525.72 149.41,525.62 148.9,525.49C147.72,525.2 146.62,524.66 145.43,524.42C144.96,524.33 144.51,524.19 144.09,523.98C143.65,523.76 142.78,523.72 142.31,523.62C141.67,523.49 141.42,523.35 140.88,523.09" id="imagebot_44"/>
    <path filter="url(#imagebot_43)" fill-rule="evenodd" fill="url(#imagebot_42)" d="M127.58,527.77C126.51,527.5 124.72,527.21 123.39,526.88C122.72,526.71 121.9,526.64 121.43,526.52C120.62,526.32 119.87,526.1 119.11,525.72C118.33,525.33 117.48,525.15 116.62,525.01C107.34,520.65 88.832,522.98 114.13,530.35C115.78,530.77 113.76,530.29 114.66,530.44C115.48,530.65 116.94,530.92 117.6,531.25C118.22,531.55 119.38,531.6 120.09,531.78C120.82,531.96 121.53,532.05 122.23,532.23C122.75,532.36 123.35,532.31 123.93,532.31C124.5,532.31 124.95,532.4 125.53,532.4C126.99,532.4 128.08,532.46 129.54,532.14C130.64,531.89 131.3,531.58 132.3,531.25C132.92,531.04 133.41,530.76 133.82,530.35C134.76,529.41 134.43,528.48 133.73,528.13C132.82,527.68 130.28,527.87 129.27,527.77C128.12,527.66 127.25,527.58 126.24,527.33C125.71,527.19 125.23,527.1 124.73,526.97C123.54,526.67 122.44,526.14 121.25,525.9C120.79,525.81 120.33,525.66 119.92,525.45C119.48,525.24 118.6,525.19 118.13,525.1C117.5,524.97 117.24,524.83 116.71,524.56" transform="matrix(.92037 -.39106 .39106 .92037 -198.49 84.512)" id="imagebot_41"/>
   </g>
   <metadata>image/svg+xmlOpenclipartAk47 gun2010-12-01T21:54:19AK47 gun with a medium detail, needs a little work.https://openclipart.org/detail/99049/ak47-gun-by-jpd2010jpd2010ak47armygunmilitiariflewarweapon</metadata>
  </g>
  <image transform="translate(-0.32768 -1.6384) matrix(-2.44633 0 0 2.46444 201.523 -69.4728)" height="24" width="34" y="28.64416" x="43.5112" xlink:href="https://melbournechapter.net/images/ushanka-transparent-3.png" id="imagebot_223"/>
 </g>
 <metadata>image/svg+xmlOpenclipartPadepokan: Superloser2010-05-23T00:37:45Superlosers want to be an army, but not quitehttps://openclipart.org/detail/62131/padepokan:-superloser-by-diasdiasbaddienewbie</metadata>
</svg>